<?xml version="1.0" encoding="UTF-8" standalone="no"?>
<!-- Created with Inkscape (http://www.inkscape.org/) -->

<svg
   xmlns:dc="http://purl.org/dc/elements/1.1/"
   xmlns:cc="http://creativecommons.org/ns#"
   xmlns:rdf="http://www.w3.org/1999/02/22-rdf-syntax-ns#"
   xmlns:svg="http://www.w3.org/2000/svg"
   xmlns="http://www.w3.org/2000/svg"
   xmlns:sodipodi="http://sodipodi.sourceforge.net/DTD/sodipodi-0.dtd"
   xmlns:inkscape="http://www.inkscape.org/namespaces/inkscape"
   width="216.46387"
   height="193.14285"
   id="svg2"
   version="1.1"
   inkscape:version="0.48.4 r9939"
   sodipodi:docname="projected-results.svg">
  <defs
     id="defs4" />
  <sodipodi:namedview
     id="base"
     pagecolor="#ffffff"
     bordercolor="#666666"
     borderopacity="1.0"
     inkscape:pageopacity="0.0"
     inkscape:pageshadow="2"
     inkscape:zoom="1.4"
     inkscape:cx="103.21887"
     inkscape:cy="84.659194"
     inkscape:document-units="px"
     inkscape:current-layer="layer1"
     showgrid="false"
     fit-margin-top="0"
     fit-margin-left="0"
     fit-margin-right="0"
     fit-margin-bottom="0"
     inkscape:window-width="1440"
     inkscape:window-height="850"
     inkscape:window-x="0"
     inkscape:window-y="1660"
     inkscape:window-maximized="1" />
  <metadata
     id="metadata7">
    <rdf:RDF>
      <cc:Work
         rdf:about="">
        <dc:format>image/svg+xml</dc:format>
        <dc:type
           rdf:resource="http://purl.org/dc/dcmitype/StillImage" />
        <dc:title></dc:title>
      </cc:Work>
    </rdf:RDF>
  </metadata>
  <g
     inkscape:label="Layer 1"
     inkscape:groupmode="layer"
     id="layer1"
     transform="translate(-313.32184,-380.43361)">
    <g
       transform="matrix(0,-1,1,0,-150.37715,765.86486)"
       style="font-size:12px;font-style:normal;font-variant:normal;font-weight:normal;font-stretch:normal;line-height:125%;letter-spacing:0px;word-spacing:0px;fill:#000000;fill-opacity:1;stroke:none;font-family:Monospace;-inkscape-font-specification:Monospace"
       id="flowRoot3026">
      <path
         d="m 248.20508,479.81451 c -0.23048,-0.17969 -0.46485,-0.31055 -0.70313,-0.39258 -0.23828,-0.082 -0.5,-0.12304 -0.78515,-0.12305 -0.67188,10e-6 -1.18555,0.21094 -1.54102,0.63281 -0.35547,0.42188 -0.53321,1.03126 -0.5332,1.82813 l 0,3.26367 -1.08399,0 0,-6.5625 1.08399,0 0,1.2832 c 0.17968,-0.46483 0.45507,-0.8203 0.82617,-1.0664 0.375,-0.25 0.81835,-0.375 1.33008,-0.375 0.26562,0 0.51366,0.0332 0.74414,0.0996 0.23046,0.0664 0.45116,0.16992 0.66211,0.31054 l 0,1.10157"
         style=""
         id="path3072" />
      <path
         d="m 255.17187,481.47271 0,0.52734 -4.66992,0 0,0.0352 c 0,0.71484 0.18555,1.26758 0.55664,1.6582 0.375,0.39063 0.90234,0.58594 1.58203,0.58594 0.34375,0 0.70313,-0.0547 1.07813,-0.16406 0.37499,-0.10938 0.77538,-0.27539 1.20117,-0.49805 l 0,1.07227 c -0.41016,0.16796 -0.80664,0.29296 -1.18945,0.375 -0.37891,0.0859 -0.7461,0.1289 -1.10156,0.1289 -1.01954,0 -1.81641,-0.30469 -2.39063,-0.91406 -0.57422,-0.61328 -0.86133,-1.45703 -0.86133,-2.53125 0,-1.04687 0.28125,-1.88281 0.84375,-2.50781 0.5625,-0.625 1.3125,-0.9375 2.25,-0.9375 0.83594,0 1.49414,0.28321 1.97461,0.84961 0.48437,0.56641 0.72656,1.33984 0.72656,2.32031 m -1.07812,-0.31641 c -0.0156,-0.63281 -0.16602,-1.11327 -0.45117,-1.4414 -0.28126,-0.33203 -0.68751,-0.49804 -1.21875,-0.49805 -0.51954,10e-6 -0.94727,0.17188 -1.28321,0.51562 -0.33593,0.34376 -0.53515,0.82032 -0.59765,1.42969 l 3.55078,-0.006"
         style=""
         id="path3074" />
      <path
         d="m 261.57617,478.68951 0,1.05468 c -0.3086,-0.17968 -0.61914,-0.31444 -0.93164,-0.40429 -0.3125,-0.0898 -0.63086,-0.13476 -0.95508,-0.13477 -0.48828,10e-6 -0.85352,0.0801 -1.0957,0.24023 -0.23828,0.15626 -0.35742,0.39649 -0.35742,0.72071 0,0.29297 0.0898,0.51172 0.26953,0.65625 0.17968,0.14453 0.62695,0.28516 1.3418,0.42187 l 0.43359,0.082 c 0.53515,0.10157 0.93945,0.3047 1.21289,0.60938 0.27734,0.30469 0.41601,0.70117 0.41602,1.18945 -1e-5,0.64844 -0.23048,1.15625 -0.69141,1.52344 -0.46094,0.36328 -1.10157,0.54492 -1.92188,0.54492 -0.32422,0 -0.66406,-0.0351 -1.01953,-0.10547 -0.35547,-0.0664 -0.74023,-0.16797 -1.15429,-0.30468 l 0,-1.11329 c 0.40234,0.20704 0.7871,0.36329 1.15429,0.46875 0.36719,0.10157 0.71484,0.15235 1.04297,0.15235 0.47656,0 0.8457,-0.0957 1.10742,-0.28711 0.26172,-0.19531 0.39258,-0.4668 0.39258,-0.81445 0,-0.5 -0.47852,-0.8457 -1.43554,-1.03711 l -0.0469,-0.0117 -0.4043,-0.082 c -0.62109,-0.12109 -1.07422,-0.32422 -1.35937,-0.60938 -0.28516,-0.28906 -0.42774,-0.68164 -0.42774,-1.17773 0,-0.6289 0.21289,-1.11328 0.63868,-1.45313 0.42578,-0.34374 1.0332,-0.51562 1.82226,-0.51562 0.35156,0 0.68945,0.0332 1.01367,0.0996 0.32422,0.0625 0.64258,0.15821 0.95508,0.28711"
         style=""
         id="path3076" />
      <path
         d="m 269.60937,481.47271 0,0.52734 -4.66992,0 0,0.0352 c 0,0.71484 0.18555,1.26758 0.55664,1.6582 0.375,0.39063 0.90234,0.58594 1.58203,0.58594 0.34375,0 0.70313,-0.0547 1.07813,-0.16406 0.37499,-0.10938 0.77538,-0.27539 1.20117,-0.49805 l 0,1.07227 c -0.41016,0.16796 -0.80664,0.29296 -1.18945,0.375 -0.37891,0.0859 -0.7461,0.1289 -1.10156,0.1289 -1.01954,0 -1.81641,-0.30469 -2.39063,-0.91406 -0.57422,-0.61328 -0.86133,-1.45703 -0.86133,-2.53125 0,-1.04687 0.28125,-1.88281 0.84375,-2.50781 0.5625,-0.625 1.3125,-0.9375 2.25,-0.9375 0.83594,0 1.49414,0.28321 1.97461,0.84961 0.48437,0.56641 0.72656,1.33984 0.72656,2.32031 m -1.07812,-0.31641 c -0.0156,-0.63281 -0.16602,-1.11327 -0.45117,-1.4414 -0.28126,-0.33203 -0.68751,-0.49804 -1.21875,-0.49805 -0.51954,10e-6 -0.94727,0.17188 -1.28321,0.51562 -0.33593,0.34376 -0.53515,0.82032 -0.59765,1.42969 l 3.55078,-0.006"
         style=""
         id="path3078" />
      <path
         d="m 274.42578,481.72466 -0.35742,0 c -0.62891,1e-5 -1.10352,0.11133 -1.42383,0.33399 -0.31641,0.21875 -0.47461,0.54687 -0.47461,0.98437 0,0.39453 0.11914,0.70117 0.35742,0.91992 0.23828,0.21875 0.56836,0.32813 0.99024,0.32813 0.59374,0 1.06054,-0.20508 1.40039,-0.61524 0.33984,-0.41406 0.51171,-0.98437 0.51562,-1.71093 l 0,-0.24024 -1.00781,0 m 2.0918,-0.44531 0,3.74414 -1.08399,0 0,-0.97266 c -0.23047,0.39063 -0.52149,0.67969 -0.87304,0.86719 -0.34766,0.18359 -0.77149,0.27539 -1.27149,0.27539 -0.66797,0 -1.20117,-0.1875 -1.59961,-0.5625 -0.39844,-0.3789 -0.59765,-0.88476 -0.59765,-1.51758 0,-0.73046 0.24414,-1.28515 0.73242,-1.66406 0.49218,-0.3789 1.21289,-0.56835 2.16211,-0.56836 l 1.44726,0 0,-0.16992 c -0.004,-0.52343 -0.13672,-0.90234 -0.39843,-1.13672 -0.26173,-0.23827 -0.6797,-0.35741 -1.25391,-0.35742 -0.36719,10e-6 -0.73828,0.0527 -1.11328,0.1582 -0.375,0.10548 -0.74024,0.25977 -1.0957,0.46289 l 0,-1.07812 c 0.39843,-0.15234 0.77929,-0.26562 1.14257,-0.33985 0.36719,-0.0781 0.72266,-0.11718 1.06641,-0.11718 0.54296,0 1.00585,0.0801 1.38867,0.24023 0.38672,0.16016 0.69922,0.4004 0.9375,0.7207 0.14843,0.19532 0.2539,0.43751 0.31641,0.72657 0.0625,0.28516 0.0937,0.71484 0.0937,1.28906"
         style=""
         id="path3080" />
      <path
         d="m 284.29883,479.81451 c -0.23048,-0.17969 -0.46485,-0.31055 -0.70313,-0.39258 -0.23828,-0.082 -0.5,-0.12304 -0.78515,-0.12305 -0.67188,10e-6 -1.18555,0.21094 -1.54102,0.63281 -0.35547,0.42188 -0.53321,1.03126 -0.5332,1.82813 l 0,3.26367 -1.08399,0 0,-6.5625 1.08399,0 0,1.2832 c 0.17968,-0.46483 0.45507,-0.8203 0.82617,-1.0664 0.375,-0.25 0.81835,-0.375 1.33008,-0.375 0.26562,0 0.51366,0.0332 0.74414,0.0996 0.23046,0.0664 0.45116,0.16992 0.66211,0.31054 l 0,1.10157"
         style=""
         id="path3082" />
      <path
         d="m 290.9668,484.68951 c -0.28907,0.16796 -0.5879,0.29296 -0.89649,0.375 -0.30469,0.0859 -0.61719,0.1289 -0.9375,0.1289 -1.01563,0 -1.81055,-0.30469 -2.38476,-0.91406 -0.57032,-0.60937 -0.85547,-1.45312 -0.85547,-2.53125 0,-1.07812 0.28515,-1.92187 0.85547,-2.53125 0.57421,-0.60937 1.36913,-0.91406 2.38476,-0.91406 0.3164,0 0.625,0.041 0.92578,0.12304 0.30078,0.082 0.60351,0.20899 0.90821,0.38086 l 0,1.13086 c -0.28517,-0.2539 -0.57227,-0.43749 -0.86133,-0.55078 -0.28516,-0.11327 -0.60938,-0.16991 -0.97266,-0.16992 -0.67578,10e-6 -1.19531,0.21875 -1.55859,0.65625 -0.36328,0.4375 -0.54493,1.0625 -0.54492,1.875 -10e-6,0.8086 0.18164,1.43359 0.54492,1.875 0.36718,0.4375 0.88671,0.65625 1.55859,0.65625 0.375,0 0.71093,-0.0566 1.00781,-0.16992 0.29687,-0.11719 0.57226,-0.29688 0.82618,-0.53907 l 0,1.11915"
         style=""
         id="path3084" />
      <path
         d="m 298.12695,480.95708 0,4.06641 -1.08398,0 0,-4.06641 c -1e-5,-0.58984 -0.10352,-1.02343 -0.31055,-1.30078 -0.20703,-0.27734 -0.53125,-0.41601 -0.97265,-0.41601 -0.50391,0 -0.89259,0.17969 -1.16602,0.53906 -0.26953,0.35547 -0.4043,0.86719 -0.4043,1.53516 l 0,3.70898 -1.07812,0 0,-9.11719 1.07812,0 0,3.53906 c 0.19141,-0.37499 0.45117,-0.65819 0.7793,-0.8496 0.32812,-0.19531 0.71679,-0.29297 1.16602,-0.29297 0.66796,0 1.16601,0.22071 1.49414,0.66211 0.33202,0.4375 0.49804,1.10156 0.49804,1.99218"
         style=""
         id="path3086" />
      <path
         d="m 308.35156,481.77154 c 0,0.83594 0.13086,1.4668 0.39258,1.89257 0.26562,0.42579 0.6582,0.63868 1.17773,0.63868 0.51953,0 0.91211,-0.21289 1.17774,-0.63868 0.26953,-0.42968 0.40429,-1.06054 0.4043,-1.89257 -1e-5,-0.83203 -0.13477,-1.46094 -0.4043,-1.88672 -0.26563,-0.42968 -0.65821,-0.64453 -1.17774,-0.64453 -0.51953,0 -0.91211,0.21289 -1.17773,0.63867 -0.26172,0.42578 -0.39258,1.05664 -0.39258,1.89258 m 3.15235,2.4375 c -0.17579,0.32422 -0.41407,0.57422 -0.71485,0.75 -0.29688,0.17187 -0.64258,0.25781 -1.03711,0.25781 -0.78516,0 -1.40625,-0.30273 -1.86328,-0.9082 -0.45312,-0.60938 -0.67969,-1.44727 -0.67969,-2.51368 0,-1.08593 0.22657,-1.93554 0.67969,-2.54882 0.45312,-0.61328 1.07422,-0.91992 1.86328,-0.91993 0.39062,1e-5 0.73437,0.086 1.03125,0.25782 0.30078,0.16797 0.54101,0.41407 0.72071,0.73828 l 0,-0.83789 1.08398,0 0,9.05859 -1.08398,0 0,-3.33398"
         style=""
         id="path3088" />
      <path
         d="m 314.76758,482.53911 0,-4.0664 1.07812,0 0,4.0664 c 0,0.58985 0.10352,1.02344 0.31055,1.30079 0.21093,0.27734 0.53515,0.41601 0.97266,0.41601 0.5078,0 0.89648,-0.17773 1.16601,-0.5332 0.26953,-0.35937 0.40429,-0.87305 0.4043,-1.54102 l 0,-3.70898 1.08398,0 0,6.55078 -1.08398,0 0,-0.98438 c -0.19141,0.37891 -0.45313,0.66602 -0.78516,0.86133 -0.32813,0.19532 -0.71289,0.29297 -1.15429,0.29297 -0.67188,0 -1.17188,-0.21875 -1.5,-0.65625 -0.32813,-0.4414 -0.49219,-1.10742 -0.49219,-1.99805"
         style=""
         id="path3090" />
      <path
         d="m 324.95703,481.72466 -0.35742,0 c -0.62891,1e-5 -1.10352,0.11133 -1.42383,0.33399 -0.31641,0.21875 -0.47461,0.54687 -0.47461,0.98437 0,0.39453 0.11914,0.70117 0.35742,0.91992 0.23828,0.21875 0.56836,0.32813 0.99024,0.32813 0.59374,0 1.06054,-0.20508 1.40039,-0.61524 0.33984,-0.41406 0.51171,-0.98437 0.51562,-1.71093 l 0,-0.24024 -1.00781,0 m 2.0918,-0.44531 0,3.74414 -1.08399,0 0,-0.97266 c -0.23047,0.39063 -0.52149,0.67969 -0.87304,0.86719 -0.34766,0.18359 -0.77149,0.27539 -1.27149,0.27539 -0.66797,0 -1.20117,-0.1875 -1.59961,-0.5625 -0.39844,-0.3789 -0.59765,-0.88476 -0.59765,-1.51758 0,-0.73046 0.24414,-1.28515 0.73242,-1.66406 0.49218,-0.3789 1.21289,-0.56835 2.16211,-0.56836 l 1.44726,0 0,-0.16992 c -0.004,-0.52343 -0.13672,-0.90234 -0.39843,-1.13672 -0.26173,-0.23827 -0.6797,-0.35741 -1.25391,-0.35742 -0.36719,10e-6 -0.73828,0.0527 -1.11328,0.1582 -0.375,0.10548 -0.74024,0.25977 -1.0957,0.46289 l 0,-1.07812 c 0.39843,-0.15234 0.77929,-0.26562 1.14257,-0.33985 0.36719,-0.0781 0.72266,-0.11718 1.06641,-0.11718 0.54296,0 1.00585,0.0801 1.38867,0.24023 0.38672,0.16016 0.69922,0.4004 0.9375,0.7207 0.14843,0.19532 0.2539,0.43751 0.31641,0.72657 0.0625,0.28516 0.0937,0.71484 0.0937,1.28906"
         style=""
         id="path3092" />
      <path
         d="m 331.80664,482.64458 c 0,0.48438 0.0879,0.84961 0.26367,1.09571 0.17969,0.24609 0.44336,0.36914 0.79102,0.36914 l 1.25976,0 0,0.91406 -1.36523,0 c -0.64454,0 -1.14454,-0.20703 -1.5,-0.62109 -0.35157,-0.41407 -0.52735,-1 -0.52734,-1.75782 l 0,-5.95898 -1.72852,0 0,-0.84375 2.80664,0 0,6.80273"
         style=""
         id="path3094" />
      <path
         d="m 336.78125,478.46099 2.75977,0 0,5.72461 2.13867,0 0,0.83789 -5.35547,0 0,-0.83789 2.13867,0 0,-4.88672 -1.68164,0 0,-0.83789 m 1.68164,-2.55469 1.07813,0 0,1.36524 -1.07813,0 0,-1.36524"
         style=""
         id="path3096" />
      <path
         d="m 346.09766,476.59771 0,1.86328 2.44921,0 0,0.83789 -2.44921,0 0,3.5625 c -1e-5,0.48438 0.0918,0.82227 0.27539,1.01367 0.18359,0.19141 0.5039,0.28711 0.96093,0.28711 l 1.21289,0 0,0.86133 -1.31835,0 c -0.8086,0 -1.37891,-0.16211 -1.71094,-0.48633 -0.33204,-0.32422 -0.49805,-0.88281 -0.49805,-1.67578 l 0,-3.5625 -1.75195,0 0,-0.83789 1.75195,0 0,-1.86328 1.07813,0"
         style=""
         id="path3098" />
      <path
         d="m 354.74609,482.91411 c -0.17969,0.45704 -0.4082,1.0586 -0.68554,1.80469 -0.38673,1.03125 -0.64649,1.66016 -0.7793,1.88672 -0.17969,0.30469 -0.4043,0.5332 -0.67383,0.68555 -0.26953,0.15234 -0.58398,0.22851 -0.94336,0.22851 l -0.86719,0 0,-0.90234 0.63868,0 c 0.3164,0 0.56445,-0.0918 0.74414,-0.27539 0.17968,-0.1836 0.4082,-0.6582 0.68554,-1.42383 l -2.53711,-6.45703 1.14258,0 1.94532,5.13281 1.91601,-5.13281 1.14258,0 -1.72852,4.45312"
         style=""
         id="path3100" />
    </g>
    <text
       xml:space="preserve"
       style="font-size:12px;font-style:normal;font-variant:normal;font-weight:normal;font-stretch:normal;line-height:125%;letter-spacing:0px;word-spacing:0px;fill:#000000;fill-opacity:1;stroke:none;font-family:Monospace;-inkscape-font-specification:Monospace"
       x="407.14288"
       y="569.50507"
       id="text3034"
       sodipodi:linespacing="125%"><tspan
         sodipodi:role="line"
         id="tspan3036"
         x="407.14288"
         y="569.50507">psych254</tspan></text>
    <path
       style="fill:none;stroke:#000000;stroke-width:1px;stroke-linecap:butt;stroke-linejoin:miter;stroke-opacity:1"
       d="m 352.85714,573.07647 0,-192.14286"
       id="path3038"
       inkscape:connector-curvature="0" />
    <path
       style="fill:none;stroke:#000000;stroke-width:1px;stroke-linecap:butt;stroke-linejoin:miter;stroke-opacity:1"
       d="m 330.71429,548.07647 198.57142,0"
       id="path3040"
       inkscape:connector-curvature="0" />
    <path
       style="fill:none;stroke:#000000;stroke-width:1px;stroke-linecap:butt;stroke-linejoin:miter;stroke-opacity:1"
       d="M 330.71429,540.21932 C 426.44955,526.00859 476.62712,487.23477 513.57143,406.64789"
       id="path3042"
       inkscape:connector-curvature="0"
       sodipodi:nodetypes="cc" />
  </g>
</svg>
